<svg xmlns="http://www.w3.org/2000/svg" xmlns:xlink="http://www.w3.org/1999/xlink" id="Camada_2" data-name="Camada 2" viewBox="0 0 418.61 403.53"><defs><style>      .cls-1 {        fill: url(#linear-gradient-7);      }      .cls-2 {        fill: url(#linear-gradient-5);      }      .cls-3 {        fill: url(#linear-gradient-6);      }      .cls-4 {        fill: url(#linear-gradient-4);      }      .cls-5 {        fill: url(#linear-gradient-3);      }      .cls-6 {        fill: url(#linear-gradient-2);      }      .cls-7 {        fill: url(#Gradiente_sem_nome_4);      }      .cls-8 {        fill: url(#linear-gradient);      }    </style><linearGradient id="Gradiente_sem_nome_4" data-name="Gradiente sem nome 4" x1="65.58" y1="345.63" x2="353.32" y2="57.9" gradientUnits="userSpaceOnUse"><stop offset="0" stop-color="#231442"></stop><stop offset="1" stop-color="#503695"></stop></linearGradient><linearGradient id="linear-gradient" x1="83.26" y1="221.81" x2="282.36" y2="221.81" gradientUnits="userSpaceOnUse"><stop offset="0" stop-color="#fff"></stop><stop offset="1" stop-color="#ed1c24"></stop></linearGradient><linearGradient id="linear-gradient-2" x1="170.6" y1="193.92" x2="315.32" y2="193.92" xlink:href="#linear-gradient"></linearGradient><linearGradient id="linear-gradient-3" x1="0" y1="201.76" x2="418.61" y2="201.76" xlink:href="#linear-gradient"></linearGradient><linearGradient id="linear-gradient-4" x1="195.2" y1="170.69" x2="370.32" y2="170.69" xlink:href="#linear-gradient"></linearGradient><linearGradient id="linear-gradient-5" x1="251.5" y1="144.2" x2="386.57" y2="144.2" xlink:href="#linear-gradient"></linearGradient><linearGradient id="linear-gradient-6" x1="120.71" y1="350.5" x2="323.61" y2="350.5" xlink:href="#linear-gradient"></linearGradient><linearGradient id="linear-gradient-7" x1="30.1" y1="137.83" x2="151.57" y2="137.83" xlink:href="#linear-gradient"></linearGradient></defs><g id="Layer_1" data-name="Layer 1"><ellipse class="cls-7" cx="209.45" cy="201.76" rx="207.16" ry="199.69"></ellipse><path class="cls-8" d="M151.67,102.71s29.08,135.16,130.69,213.87c0,0-61.65-12.19-166.52,24.32,0,0,46.6-45.28,23.59-79.78-23.02-34.49-76.02-35.05-48.38-68.39,0,0,37.37-36.44,60.62-90.02Z"></path><path class="cls-6" d="M170.6,77.56s80.76,179.86,144.72,232.73c0,0,3.94-181.67-144.72-232.73Z"></path><path class="cls-5" d="M209.31,0C93.71,0,0,90.33,0,201.76s93.71,201.76,209.31,201.76,209.31-90.33,209.31-201.76S324.9,0,209.31,0ZM209.93,395.98c-110.49,0-200.07-86.35-200.07-192.86S99.43,10.26,209.93,10.26s200.07,86.35,200.07,192.86-89.58,192.86-200.07,192.86Z"></path><g><path class="cls-4" d="M201.27,35.57s60.38,38.75,109.25,132.95c31.11,59.97,43.16,111.49,38.63,140.75,8.32-10.32,15.44-21.58,21.17-33.58-10.02-134.71-106.78-217.89-137.22-241.9-8.09-1.08-16.36-1.66-24.76-1.66-4.42,0-8.8.16-13.14.47,1.95.88,3.97,1.87,6.07,2.98Z"></path><path class="cls-2" d="M379.73,251.2c4.45-15.02,6.83-30.88,6.83-47.27,0-80.54-57.49-148.12-135.07-166.73,97.85,65.19,123.35,169.21,128.24,214Z"></path><path class="cls-3" d="M120.71,353.57c25.88,14.11,55.77,22.18,87.63,22.18,43.96,0,84.2-15.35,115.28-40.79-32.95-2.06-20.54-29.66-202.91,18.61Z"></path><path class="cls-1" d="M147.66,78.75s-3.19-22.37,3.91-37.73C80.97,63.87,30.1,128.17,30.1,203.93c0,10.49.98,20.75,2.84,30.72,28.57-26.09,94.75-90.62,114.72-155.9Z"></path></g></g></svg>